<?xml version="1.0" encoding="UTF-8"?>
<!DOCTYPE svg PUBLIC "-//W3C//DTD SVG 1.1//EN" "http://www.w3.org/Graphics/SVG/1.1/DTD/svg11.dtd">
<!-- Creator: CorelDRAW X5 -->
<svg xmlns="http://www.w3.org/2000/svg" xml:space="preserve" width="50.7998mm" height="19.1346mm" style="shape-rendering:geometricPrecision; text-rendering:geometricPrecision; image-rendering:optimizeQuality; fill-rule:evenodd; clip-rule:evenodd"
viewBox="0 0 5080 1913"
 xmlns:xlink="http://www.w3.org/1999/xlink"
 xmlns:svg="http://www.w3.org/2000/svg">
 <defs>
  <style type="text/css">
   <![CDATA[
    .fil1 {fill:black;fill-rule:nonzero}
    .fil0 {fill:#A334EF;fill-rule:nonzero}
   ]]>
  </style>
 </defs>
 <g id="Layer_x0020_1">
  <metadata id="CorelCorpID_0Corel-Layer"/>
 </g>
 <g id="svg2">
  <metadata id="CorelCorpID_1Corel-Layer"/>
  <polygon class="fil0" points="789,458 395,230 0,458 0,230 395,2 789,230 789,458 "/>
  <path class="fil1" d="M0 649l207 0 0 502c0,130 97,193 188,193 92,0 188,-65 188,-195l0 -500 207 0 0 514c0,120 -38,212 -113,275 -75,63 -169,94 -284,94 -114,0 -208,-31 -282,-94 -73,-63 -111,-152 -111,-270l0 -519zm2576 624l0 0c-63,56 -134,83 -215,83 -148,0 -248,-84 -259,-215l668 0c0,0 4,-42 4,-82 0,-123 -39,-226 -120,-309 -79,-84 -181,-125 -306,-125 -131,0 -239,41 -325,125 -84,84 -126,193 -126,330l0 7c0,135 43,243 126,323 84,80 195,121 330,121 157,0 282,-62 376,-169l-154 -89zm-393 -419l0 0c46,-36 103,-55 166,-55 60,0 109,19 152,56 41,34 63,76 65,125l-458 0c7,-50 32,-92 76,-126l0 0zm2474 792l0 0c-84,198 -172,265 -306,265l-93 0 0 -183 75 0c46,0 89,-17 130,-112l41 -95 -354 -873 210 0 251 629 258 -629 210 0 -423 997 0 0zm-3063 -1327l0 0 0 408c-68,-61 -173,-97 -275,-97 -121,0 -224,43 -307,130 -82,85 -123,191 -123,319 0,128 41,234 123,321 84,85 186,128 307,128 140,0 228,-55 275,-98l0 79 205 0 0 -1190 -205 0 0 0zm-62 948l0 0c-50,50 -113,75 -186,75 -73,0 -133,-26 -183,-75 -48,-50 -72,-113 -72,-188 0,-75 24,-138 72,-188 50,-50 109,-75 183,-75 73,0 137,26 186,75 51,50 77,113 77,188 0,75 -26,138 -77,188zm2300 -635l0 0c-156,0 -237,65 -292,127 -22,-42 -85,-127 -231,-127 -123,0 -196,62 -232,107l0 -90 -203 0 0 861 203 0 0 -495c0,-116 72,-200 167,-200 97,0 154,73 154,191l0 504 203 0 0 -495c0,-118 70,-200 171,-200 97,0 154,73 154,191l0 504 205 0 0 -533c0,-224 -121,-345 -299,-345l0 0z"/>
 </g>
</svg>
